<svg width="181" height="28" viewBox="0 0 181 28" fill="none" xmlns="http://www.w3.org/2000/svg">
<path d="M10.116 27.36C8.004 27.36 6.252 27 4.86 26.28C3.468 25.56 2.424 24.552 1.728 23.256C1.032 21.936 0.684 20.412 0.684 18.684H7.2C7.2 19.476 7.296 20.136 7.488 20.664C7.704 21.168 8.028 21.54 8.46 21.78C8.916 22.02 9.48 22.14 10.152 22.14C10.68 22.14 11.124 22.056 11.484 21.888C11.844 21.72 12.108 21.468 12.276 21.132C12.468 20.796 12.564 20.376 12.564 19.872C12.564 19.416 12.492 19.032 12.348 18.72C12.204 18.384 11.964 18.096 11.628 17.856C11.292 17.616 10.836 17.388 10.26 17.172C9.708 16.932 9.012 16.68 8.172 16.416C7.092 16.104 6.108 15.72 5.22 15.264C4.356 14.808 3.612 14.268 2.988 13.644C2.364 12.996 1.884 12.24 1.548 11.376C1.212 10.488 1.044 9.468 1.044 8.316C1.044 6.588 1.416 5.136 2.16 3.96C2.904 2.784 3.96 1.908 5.328 1.332C6.696 0.731998 8.292 0.431999 10.116 0.431999C11.94 0.431999 13.524 0.731998 14.868 1.332C16.212 1.932 17.244 2.832 17.964 4.032C18.708 5.208 19.08 6.684 19.08 8.46H12.564C12.564 7.716 12.456 7.14 12.24 6.732C12.024 6.3 11.736 5.988 11.376 5.796C11.016 5.604 10.62 5.508 10.188 5.508C9.708 5.508 9.3 5.592 8.964 5.76C8.652 5.904 8.412 6.132 8.244 6.444C8.076 6.756 7.992 7.152 7.992 7.632C7.992 8.184 8.112 8.64 8.352 9C8.592 9.36 9.024 9.684 9.648 9.972C10.296 10.26 11.184 10.572 12.312 10.908C13.224 11.22 14.112 11.58 14.976 11.988C15.84 12.396 16.608 12.912 17.28 13.536C17.976 14.16 18.528 14.94 18.936 15.876C19.368 16.812 19.584 17.964 19.584 19.332C19.584 21.012 19.212 22.452 18.468 23.652C17.748 24.852 16.692 25.776 15.3 26.424C13.908 27.048 12.18 27.36 10.116 27.36ZM18.7405 27L24.8245 0.755999H34.5445L40.7005 27H33.7525L30.4405 9.468L29.8285 6.12H29.5765L28.9645 9.468L25.6885 27H18.7405ZM26.0485 22.5L27.0925 17.208H32.2765L33.3565 22.5H26.0485ZM125.643 27V0.755999H141.519V6.66H131.799L132.663 5.832V27H125.643ZM131.223 17.424V11.808H140.475V17.424H131.223ZM141.949 27V0.755999H148.969V27H141.949ZM154.556 27V6.156H161.54V27H154.556ZM149.372 6.732V0.755999H166.94V6.732H149.372Z" fill="#44200E"/>
<path d="M40.8746 27V0.755999H51.1706L52.6466 10.08L53.3666 16.344H53.6186L54.3026 10.08L55.7426 0.755999H66.0746V27H59.4866V15.3L59.7026 7.704H59.4146L58.0466 16.164L55.9946 27H50.9906L48.9386 16.092L47.6426 7.884H47.3546L47.4986 15.3V27H40.8746ZM67.4457 27V0.755999H83.3217V6.66H73.0977L74.2857 5.472V22.284L73.0977 21.06H83.3937V27H67.4457ZM73.0977 16.416V10.908H82.1697V16.416H73.0977ZM84.1028 27V0.755999H91.9148L97.5308 15.192H97.7468L97.4588 7.56V0.755999H103.939V27H96.4148L90.7268 12.78H90.5108L90.7988 19.908V27H84.1028ZM114.724 27.324C112.636 27.324 110.872 26.94 109.432 26.172C108.016 25.404 106.936 24.324 106.192 22.932C105.472 21.54 105.112 19.92 105.112 18.072V0.755999H111.952V18.144C111.952 18.84 112.06 19.416 112.276 19.872C112.516 20.304 112.84 20.628 113.248 20.844C113.68 21.06 114.196 21.168 114.796 21.168C115.444 21.168 115.972 21.048 116.38 20.808C116.812 20.568 117.124 20.22 117.316 19.764C117.532 19.308 117.64 18.768 117.64 18.144V0.755999H124.444V18.072C124.444 20.088 124.036 21.792 123.22 23.184C122.404 24.552 121.264 25.584 119.8 26.28C118.36 26.976 116.668 27.324 114.724 27.324ZM174.149 10.512V9.072L174.689 6.948L173.069 8.46L171.773 9.18L170.549 7.02L171.773 6.3L173.933 5.652L171.809 5.004L170.549 4.284L171.773 2.124L173.069 2.844L174.689 4.356L174.149 2.232V0.755999H176.669V2.232L176.129 4.356L177.749 2.844L179.045 2.124L180.269 4.284L179.009 5.004L176.885 5.652L179.009 6.3L180.269 7.02L179.045 9.18L177.749 8.46L176.129 6.948L176.669 9.072V10.512H174.149Z" fill="#F2CA50"/>
</svg>
